<?xml version="1.0" encoding="UTF-8"?>
<!DOCTYPE svg PUBLIC "-//W3C//DTD SVG 1.1//EN" "http://www.w3.org/Graphics/SVG/1.1/DTD/svg11.dtd">
<!-- Creator: CorelDRAW X8 -->
<svg xmlns="http://www.w3.org/2000/svg" xml:space="preserve" width="11.3288mm" height="11.5399mm" version="1.1" style="shape-rendering:geometricPrecision; text-rendering:geometricPrecision; image-rendering:optimizeQuality; fill-rule:evenodd; clip-rule:evenodd"
viewBox="0 0 85 87"
 xmlns:xlink="http://www.w3.org/1999/xlink">
 <defs>
  <style type="text/css">
   <![CDATA[
    .str1 {stroke:#E30763;stroke-width:5.63386}
    .str0 {stroke:#E30763;stroke-width:3.7559}
    .fil1 {fill:none}
    .fil0 {fill:#E30763}
   ]]>
  </style>
 </defs>
 <g id="Capa_x0020_1">
  <metadata id="CorelCorpID_0Corel-Layer"/>
  <g>
   <path class="fil0" d="M47 71l12 0 -12 0zm17 -3c2,0 4,2 4,4 0,3 -2,5 -4,5 -2,0 -4,-2 -4,-5 0,-2 2,-4 4,-4zm-16 -2l0 0zm-1 0l1 1 -1 -1zm0 1l0 0 0 4 0 -4 0 0zm0 4l0 0 0 0 0 14 -6 0 -2 -5 -1 -5c-1,-1 -2,-1 -3,-1l-4 3 -5 3 -5 -3 -5 -4 2 -5 1 -3c-1,-1 -2,-2 -3,-3l-4 0 -6 -1 -2 -5 -2 -5 5 -4 2 -1c0,-1 0,-2 0,-3 0,-1 0,-2 0,-3l-2 -1 -5 -3 2 -6 2 -5 6 0 4 0c1,-1 2,-2 3,-3l-1 -4 -2 -5 5 -3 5 -4 5 4 4 3c1,-1 2,-1 2,-1l2 -5 2 -5 6 0 0 14 0 0 0 0 0 3c-13,1 -23,12 -22,25 0,12 9,22 22,23 0,0 2,0 2,0 0,0 -2,0 -2,0l0 4zm0 -52l0 0 0 0zm0 0l0 1 0 -1 0 1 0 -1zm0 1l0 -1 0 0 0 2 0 -1zm0 -4l12 0 -12 0zm17 -4c2,0 4,2 4,4 0,3 -2,4 -4,4 -3,0 -5,-1 -5,-4 0,-2 2,-4 5,-4z"/>
   <path id="1" class="fil1 str0" d="M47 71l12 0m5 -3c2,0 4,2 4,4 0,3 -2,5 -4,5 -2,0 -4,-2 -4,-5 0,-2 2,-4 4,-4zm-16 -2l0 0zm-1 0l1 1 -1 -1zm0 1l0 0 0 4 0 -4m0 4l0 0 0 0 0 14 -6 0 -2 -5 -1 -5c-1,-1 -2,-1 -3,-1l-4 3 -5 3 -5 -3 -5 -4 2 -5 1 -3c-1,-1 -2,-2 -3,-3l-4 0 -6 -1 -2 -5 -2 -5 5 -4 2 -1c0,-1 0,-2 0,-3 0,-1 0,-2 0,-3l-2 -1 -5 -3 2 -6 2 -5 6 0 4 0c1,-1 2,-2 3,-3l-1 -4 -2 -5 5 -3 5 -4 5 4 4 3c1,-1 2,-1 2,-1l2 -5 2 -5 6 0 0 14 0 0 0 0 0 3c-13,1 -23,12 -22,25 0,12 9,22 22,23 0,0 2,0 2,0 0,0 -2,0 -2,0m0 -48l0 0 0 0zm0 0l0 1 0 -1 0 1 0 -1zm0 1l0 -1 0 0 0 2 0 -1zm0 -4l12 0m5 -4c2,0 4,2 4,4 0,3 -2,4 -4,4 -3,0 -5,-1 -5,-4 0,-2 2,-4 5,-4z"/>
  </g>
  <path class="fil1 str1" d="M44 44l30 0m4 -5c2,0 4,2 4,5 0,2 -2,4 -4,4 -2,0 -4,-2 -4,-4 0,-3 2,-5 4,-5z"/>
  <path class="fil1 str1" d="M35 39l0 9 8 7 24 0 7 5m-39 -12l0 -9 8 -7 24 0 7 -5m4 30c2,0 4,2 4,5 0,2 -2,4 -4,4 -2,0 -4,-2 -4,-4 0,-3 2,-5 4,-5zm0 -36c2,0 4,2 4,4 0,2 -2,4 -4,4 -2,0 -3,0 -4,-2l0 0c0,0 0,-1 0,-2 0,-2 1,-4 4,-4z"/>
 </g>
</svg>
